<svg width="1024" height="1024" viewBox="0 0 1024 1024" fill="none" xmlns="http://www.w3.org/2000/svg">
<mask id="path-1-outside-1_2_2" maskUnits="userSpaceOnUse" x="107" y="107" width="811" height="810" fill="black">
<rect fill="white" x="107" y="107" width="811" height="810"/>
<path d="M292.643 895.714C289.526 895.714 287 898.241 287 901.357C287 904.474 289.526 907 292.643 907H394.491C397.607 907 400.133 904.474 400.133 901.357C400.133 898.241 397.607 895.714 394.491 895.714H362.235C353.398 895.714 346.235 888.551 346.235 879.714V354.658C346.235 334.926 374.977 332.681 378.041 352.174L464.028 899.299C464.725 903.733 468.546 907 473.035 907C477.472 907 481.265 903.805 482.019 899.432L577.022 348.326C580.35 329.025 608.79 331.458 608.79 351.044V879.714C608.79 888.551 601.626 895.714 592.79 895.714H570.14C567.023 895.714 564.497 898.241 564.497 901.357C564.497 904.474 567.023 907 570.14 907H733.357C736.474 907 739 904.474 739 901.357C739 898.241 736.474 895.714 733.357 895.714H704.837C696.001 895.714 688.837 888.551 688.837 879.714V144.286C688.837 135.449 696.001 128.286 704.837 128.286H733.357C736.474 128.286 739 125.759 739 122.643C739 119.526 736.474 117 733.357 117H619.557C611.788 117 605.142 122.581 603.798 130.232L526.539 570.159C523.4 588.033 497.636 587.703 494.956 569.754L429.386 130.637C428.216 122.8 421.485 117 413.561 117H292.643C289.526 117 287 119.526 287 122.643C287 125.759 289.526 128.286 292.643 128.286H319.562C328.399 128.286 335.562 135.449 335.562 144.286V879.714C335.562 888.551 328.399 895.714 319.562 895.714H292.643Z"/>
<path d="M287 261C287 258.239 284.76 255.987 282.002 256.125C270.578 256.697 259.323 259.225 248.732 263.612C236.599 268.638 225.575 276.003 216.29 285.289C207.004 294.575 199.638 305.599 194.612 317.732C192.173 323.62 190.309 329.713 189.036 335.927C187.74 342.251 183.388 347.597 177.459 350.149C159.819 357.743 144.636 370.305 133.853 386.443C120.375 406.615 114.689 430.999 117.856 455.053C119.175 465.076 121.995 474.757 126.155 483.798C128.544 488.991 128.544 495.009 126.155 500.202C121.055 511.285 118.016 523.233 117.214 535.46C116.211 550.766 118.742 566.097 124.612 580.268C130.482 594.44 139.533 607.07 151.066 617.184C159.071 624.204 168.122 629.881 177.866 634.025C183.708 636.509 188.037 641.704 189.427 647.898C190.68 653.48 192.413 658.958 194.612 664.268C199.638 676.401 207.004 687.425 216.29 696.711C225.575 705.997 236.599 713.362 248.732 718.388C259.323 722.775 270.578 725.303 282.002 725.875C284.76 726.013 287 723.761 287 721C287 718.239 284.76 716.014 282.003 715.861C271.892 715.299 261.936 713.034 252.559 709.149C241.639 704.626 231.718 697.997 223.361 689.64C215.003 681.282 208.374 671.361 203.851 660.442C199.328 649.522 197 637.819 197 626C197 614.181 199.328 602.478 203.851 591.559C208.374 580.639 215.003 570.718 223.361 562.36C231.718 554.003 241.639 547.374 252.559 542.851C261.936 538.967 271.892 536.701 282.003 536.139C284.76 535.986 287 533.761 287 531C287 528.239 284.76 525.987 282.002 526.125C270.578 526.697 259.323 529.225 248.732 533.612C236.599 538.638 225.575 546.003 216.29 555.289C207.004 564.575 199.638 575.599 194.612 587.732C189.587 599.864 187 612.868 187 626C187 626.415 186.59 626.708 186.2 626.566C175.743 622.757 166.061 617.033 157.659 609.666C147.28 600.563 139.134 589.196 133.851 576.441C128.568 563.687 126.29 549.889 127.193 536.114C127.516 531.187 128.243 526.31 129.359 521.53C131.587 511.991 143.7 510.725 151.066 517.184C168.05 532.079 189.537 540.751 212.002 541.875C214.76 542.013 217 539.761 217 537C217 534.239 214.759 532.014 212.002 531.861C191.965 530.747 172.819 522.96 157.659 509.666C141.243 495.269 130.62 475.395 127.77 453.747C124.92 432.099 130.037 410.154 142.168 391.999C148.803 382.068 157.289 373.642 167.068 367.122C176.191 361.038 187.195 368.618 189.748 379.282C190.97 384.386 192.595 389.397 194.612 394.268C199.638 406.401 207.004 417.425 216.29 426.711C225.575 435.997 236.599 443.362 248.732 448.388C259.323 452.775 270.578 455.303 282.002 455.875C284.76 456.013 287 453.761 287 451C287 448.239 284.76 446.014 282.003 445.861C271.892 445.299 261.936 443.033 252.559 439.149C241.639 434.626 231.718 427.997 223.361 419.64C215.003 411.282 208.374 401.361 203.851 390.442C199.328 379.522 197 367.819 197 356C197 344.181 199.328 332.478 203.851 321.559C208.374 310.639 215.003 300.718 223.361 292.36C231.718 284.003 241.639 277.374 252.559 272.851C261.936 268.967 271.892 266.701 282.003 266.139C284.76 265.986 287 263.761 287 261Z"/>
<path d="M739 451C739 453.761 741.24 456.013 743.998 455.875C768.7 454.64 792.139 444.283 809.711 426.711C822.606 413.816 831.615 397.762 835.986 380.368C838.685 369.627 849.959 362.143 858.999 368.541C867.909 374.848 875.669 382.774 881.833 391.999C893.963 410.154 899.08 432.099 896.23 453.747C893.38 475.395 882.758 495.269 866.341 509.666C851.181 522.96 832.036 530.747 811.998 531.861C809.241 532.014 807 534.239 807 537C807 539.761 809.241 542.013 811.999 541.875C834.464 540.751 855.951 532.079 872.935 517.184C880.3 510.725 892.413 511.991 894.642 521.53C895.758 526.31 896.485 531.187 896.808 536.114C897.71 549.889 895.432 563.687 890.149 576.441C884.867 589.196 876.72 600.563 866.341 609.666C858.292 616.725 849.067 622.274 839.111 626.077C839.058 626.097 839 626.057 839 626C839 599.478 828.465 574.043 809.711 555.289C792.139 537.717 768.7 527.36 743.998 526.125C741.24 525.987 739 528.239 739 531C739 533.761 741.241 535.986 743.998 536.139C766.046 537.364 786.943 546.664 802.64 562.36C819.518 579.239 829 602.131 829 626C829 649.87 819.518 672.761 802.64 689.64C786.943 705.336 766.046 714.636 743.998 715.861C741.241 716.015 739 718.239 739 721C739 723.761 741.24 726.013 743.998 725.875C768.7 724.64 792.139 714.283 809.711 696.711C823.414 683.007 832.73 665.736 836.753 647.081C838.073 640.961 842.262 635.786 847.973 633.221C857.018 629.158 865.436 623.761 872.935 617.184C884.467 607.07 893.518 594.44 899.388 580.268C905.258 566.097 907.789 550.766 906.786 535.46C905.985 523.233 902.945 511.285 897.846 500.202C895.457 495.009 895.456 488.991 897.846 483.798C902.006 474.757 904.825 465.076 906.145 455.053C909.311 430.999 903.626 406.615 890.147 386.443C879.737 370.864 865.228 358.617 848.364 350.956C842.566 348.321 838.356 342.997 837.13 336.747C833.332 317.393 823.861 299.439 809.711 285.289C792.139 267.717 768.7 257.36 743.998 256.125C741.24 255.987 739 258.239 739 261C739 263.761 741.241 265.986 743.998 266.139C766.046 267.364 786.943 276.664 802.64 292.36C819.518 309.239 829 332.131 829 356C829 379.869 819.518 402.761 802.64 419.64C786.943 435.336 766.046 444.636 743.998 445.861C741.241 446.014 739 448.239 739 451Z"/>
</mask>
<path d="M292.643 895.714C289.526 895.714 287 898.241 287 901.357C287 904.474 289.526 907 292.643 907H394.491C397.607 907 400.133 904.474 400.133 901.357C400.133 898.241 397.607 895.714 394.491 895.714H362.235C353.398 895.714 346.235 888.551 346.235 879.714V354.658C346.235 334.926 374.977 332.681 378.041 352.174L464.028 899.299C464.725 903.733 468.546 907 473.035 907C477.472 907 481.265 903.805 482.019 899.432L577.022 348.326C580.35 329.025 608.79 331.458 608.79 351.044V879.714C608.79 888.551 601.626 895.714 592.79 895.714H570.14C567.023 895.714 564.497 898.241 564.497 901.357C564.497 904.474 567.023 907 570.14 907H733.357C736.474 907 739 904.474 739 901.357C739 898.241 736.474 895.714 733.357 895.714H704.837C696.001 895.714 688.837 888.551 688.837 879.714V144.286C688.837 135.449 696.001 128.286 704.837 128.286H733.357C736.474 128.286 739 125.759 739 122.643C739 119.526 736.474 117 733.357 117H619.557C611.788 117 605.142 122.581 603.798 130.232L526.539 570.159C523.4 588.033 497.636 587.703 494.956 569.754L429.386 130.637C428.216 122.8 421.485 117 413.561 117H292.643C289.526 117 287 119.526 287 122.643C287 125.759 289.526 128.286 292.643 128.286H319.562C328.399 128.286 335.562 135.449 335.562 144.286V879.714C335.562 888.551 328.399 895.714 319.562 895.714H292.643Z" fill="#F6FF00"/>
<path d="M287 261C287 258.239 284.76 255.987 282.002 256.125C270.578 256.697 259.323 259.225 248.732 263.612C236.599 268.638 225.575 276.003 216.29 285.289C207.004 294.575 199.638 305.599 194.612 317.732C192.173 323.62 190.309 329.713 189.036 335.927C187.74 342.251 183.388 347.597 177.459 350.149C159.819 357.743 144.636 370.305 133.853 386.443C120.375 406.615 114.689 430.999 117.856 455.053C119.175 465.076 121.995 474.757 126.155 483.798C128.544 488.991 128.544 495.009 126.155 500.202C121.055 511.285 118.016 523.233 117.214 535.46C116.211 550.766 118.742 566.097 124.612 580.268C130.482 594.44 139.533 607.07 151.066 617.184C159.071 624.204 168.122 629.881 177.866 634.025C183.708 636.509 188.037 641.704 189.427 647.898C190.68 653.48 192.413 658.958 194.612 664.268C199.638 676.401 207.004 687.425 216.29 696.711C225.575 705.997 236.599 713.362 248.732 718.388C259.323 722.775 270.578 725.303 282.002 725.875C284.76 726.013 287 723.761 287 721C287 718.239 284.76 716.014 282.003 715.861C271.892 715.299 261.936 713.034 252.559 709.149C241.639 704.626 231.718 697.997 223.361 689.64C215.003 681.282 208.374 671.361 203.851 660.442C199.328 649.522 197 637.819 197 626C197 614.181 199.328 602.478 203.851 591.559C208.374 580.639 215.003 570.718 223.361 562.36C231.718 554.003 241.639 547.374 252.559 542.851C261.936 538.967 271.892 536.701 282.003 536.139C284.76 535.986 287 533.761 287 531C287 528.239 284.76 525.987 282.002 526.125C270.578 526.697 259.323 529.225 248.732 533.612C236.599 538.638 225.575 546.003 216.29 555.289C207.004 564.575 199.638 575.599 194.612 587.732C189.587 599.864 187 612.868 187 626C187 626.415 186.59 626.708 186.2 626.566C175.743 622.757 166.061 617.033 157.659 609.666C147.28 600.563 139.134 589.196 133.851 576.441C128.568 563.687 126.29 549.889 127.193 536.114C127.516 531.187 128.243 526.31 129.359 521.53C131.587 511.991 143.7 510.725 151.066 517.184C168.05 532.079 189.537 540.751 212.002 541.875C214.76 542.013 217 539.761 217 537C217 534.239 214.759 532.014 212.002 531.861C191.965 530.747 172.819 522.96 157.659 509.666C141.243 495.269 130.62 475.395 127.77 453.747C124.92 432.099 130.037 410.154 142.168 391.999C148.803 382.068 157.289 373.642 167.068 367.122C176.191 361.038 187.195 368.618 189.748 379.282C190.97 384.386 192.595 389.397 194.612 394.268C199.638 406.401 207.004 417.425 216.29 426.711C225.575 435.997 236.599 443.362 248.732 448.388C259.323 452.775 270.578 455.303 282.002 455.875C284.76 456.013 287 453.761 287 451C287 448.239 284.76 446.014 282.003 445.861C271.892 445.299 261.936 443.033 252.559 439.149C241.639 434.626 231.718 427.997 223.361 419.64C215.003 411.282 208.374 401.361 203.851 390.442C199.328 379.522 197 367.819 197 356C197 344.181 199.328 332.478 203.851 321.559C208.374 310.639 215.003 300.718 223.361 292.36C231.718 284.003 241.639 277.374 252.559 272.851C261.936 268.967 271.892 266.701 282.003 266.139C284.76 265.986 287 263.761 287 261Z" fill="#F6FF00"/>
<path d="M739 451C739 453.761 741.24 456.013 743.998 455.875C768.7 454.64 792.139 444.283 809.711 426.711C822.606 413.816 831.615 397.762 835.986 380.368C838.685 369.627 849.959 362.143 858.999 368.541C867.909 374.848 875.669 382.774 881.833 391.999C893.963 410.154 899.08 432.099 896.23 453.747C893.38 475.395 882.758 495.269 866.341 509.666C851.181 522.96 832.036 530.747 811.998 531.861C809.241 532.014 807 534.239 807 537C807 539.761 809.241 542.013 811.999 541.875C834.464 540.751 855.951 532.079 872.935 517.184C880.3 510.725 892.413 511.991 894.642 521.53C895.758 526.31 896.485 531.187 896.808 536.114C897.71 549.889 895.432 563.687 890.149 576.441C884.867 589.196 876.72 600.563 866.341 609.666C858.292 616.725 849.067 622.274 839.111 626.077C839.058 626.097 839 626.057 839 626C839 599.478 828.465 574.043 809.711 555.289C792.139 537.717 768.7 527.36 743.998 526.125C741.24 525.987 739 528.239 739 531C739 533.761 741.241 535.986 743.998 536.139C766.046 537.364 786.943 546.664 802.64 562.36C819.518 579.239 829 602.131 829 626C829 649.87 819.518 672.761 802.64 689.64C786.943 705.336 766.046 714.636 743.998 715.861C741.241 716.015 739 718.239 739 721C739 723.761 741.24 726.013 743.998 725.875C768.7 724.64 792.139 714.283 809.711 696.711C823.414 683.007 832.73 665.736 836.753 647.081C838.073 640.961 842.262 635.786 847.973 633.221C857.018 629.158 865.436 623.761 872.935 617.184C884.467 607.07 893.518 594.44 899.388 580.268C905.258 566.097 907.789 550.766 906.786 535.46C905.985 523.233 902.945 511.285 897.846 500.202C895.457 495.009 895.456 488.991 897.846 483.798C902.006 474.757 904.825 465.076 906.145 455.053C909.311 430.999 903.626 406.615 890.147 386.443C879.737 370.864 865.228 358.617 848.364 350.956C842.566 348.321 838.356 342.997 837.13 336.747C833.332 317.393 823.861 299.439 809.711 285.289C792.139 267.717 768.7 257.36 743.998 256.125C741.24 255.987 739 258.239 739 261C739 263.761 741.241 265.986 743.998 266.139C766.046 267.364 786.943 276.664 802.64 292.36C819.518 309.239 829 332.131 829 356C829 379.869 819.518 402.761 802.64 419.64C786.943 435.336 766.046 444.636 743.998 445.861C741.241 446.014 739 448.239 739 451Z" fill="#F6FF00"/>
<path d="M292.643 895.714C289.526 895.714 287 898.241 287 901.357C287 904.474 289.526 907 292.643 907H394.491C397.607 907 400.133 904.474 400.133 901.357C400.133 898.241 397.607 895.714 394.491 895.714H362.235C353.398 895.714 346.235 888.551 346.235 879.714V354.658C346.235 334.926 374.977 332.681 378.041 352.174L464.028 899.299C464.725 903.733 468.546 907 473.035 907C477.472 907 481.265 903.805 482.019 899.432L577.022 348.326C580.35 329.025 608.79 331.458 608.79 351.044V879.714C608.79 888.551 601.626 895.714 592.79 895.714H570.14C567.023 895.714 564.497 898.241 564.497 901.357C564.497 904.474 567.023 907 570.14 907H733.357C736.474 907 739 904.474 739 901.357C739 898.241 736.474 895.714 733.357 895.714H704.837C696.001 895.714 688.837 888.551 688.837 879.714V144.286C688.837 135.449 696.001 128.286 704.837 128.286H733.357C736.474 128.286 739 125.759 739 122.643C739 119.526 736.474 117 733.357 117H619.557C611.788 117 605.142 122.581 603.798 130.232L526.539 570.159C523.4 588.033 497.636 587.703 494.956 569.754L429.386 130.637C428.216 122.8 421.485 117 413.561 117H292.643C289.526 117 287 119.526 287 122.643C287 125.759 289.526 128.286 292.643 128.286H319.562C328.399 128.286 335.562 135.449 335.562 144.286V879.714C335.562 888.551 328.399 895.714 319.562 895.714H292.643Z" stroke="#F6FF00" stroke-width="20" mask="url(#path-1-outside-1_2_2)"/>
<path d="M287 261C287 258.239 284.76 255.987 282.002 256.125C270.578 256.697 259.323 259.225 248.732 263.612C236.599 268.638 225.575 276.003 216.29 285.289C207.004 294.575 199.638 305.599 194.612 317.732C192.173 323.62 190.309 329.713 189.036 335.927C187.74 342.251 183.388 347.597 177.459 350.149C159.819 357.743 144.636 370.305 133.853 386.443C120.375 406.615 114.689 430.999 117.856 455.053C119.175 465.076 121.995 474.757 126.155 483.798C128.544 488.991 128.544 495.009 126.155 500.202C121.055 511.285 118.016 523.233 117.214 535.46C116.211 550.766 118.742 566.097 124.612 580.268C130.482 594.44 139.533 607.07 151.066 617.184C159.071 624.204 168.122 629.881 177.866 634.025C183.708 636.509 188.037 641.704 189.427 647.898C190.68 653.48 192.413 658.958 194.612 664.268C199.638 676.401 207.004 687.425 216.29 696.711C225.575 705.997 236.599 713.362 248.732 718.388C259.323 722.775 270.578 725.303 282.002 725.875C284.76 726.013 287 723.761 287 721C287 718.239 284.76 716.014 282.003 715.861C271.892 715.299 261.936 713.034 252.559 709.149C241.639 704.626 231.718 697.997 223.361 689.64C215.003 681.282 208.374 671.361 203.851 660.442C199.328 649.522 197 637.819 197 626C197 614.181 199.328 602.478 203.851 591.559C208.374 580.639 215.003 570.718 223.361 562.36C231.718 554.003 241.639 547.374 252.559 542.851C261.936 538.967 271.892 536.701 282.003 536.139C284.76 535.986 287 533.761 287 531C287 528.239 284.76 525.987 282.002 526.125C270.578 526.697 259.323 529.225 248.732 533.612C236.599 538.638 225.575 546.003 216.29 555.289C207.004 564.575 199.638 575.599 194.612 587.732C189.587 599.864 187 612.868 187 626C187 626.415 186.59 626.708 186.2 626.566C175.743 622.757 166.061 617.033 157.659 609.666C147.28 600.563 139.134 589.196 133.851 576.441C128.568 563.687 126.29 549.889 127.193 536.114C127.516 531.187 128.243 526.31 129.359 521.53C131.587 511.991 143.7 510.725 151.066 517.184C168.05 532.079 189.537 540.751 212.002 541.875C214.76 542.013 217 539.761 217 537C217 534.239 214.759 532.014 212.002 531.861C191.965 530.747 172.819 522.96 157.659 509.666C141.243 495.269 130.62 475.395 127.77 453.747C124.92 432.099 130.037 410.154 142.168 391.999C148.803 382.068 157.289 373.642 167.068 367.122C176.191 361.038 187.195 368.618 189.748 379.282C190.97 384.386 192.595 389.397 194.612 394.268C199.638 406.401 207.004 417.425 216.29 426.711C225.575 435.997 236.599 443.362 248.732 448.388C259.323 452.775 270.578 455.303 282.002 455.875C284.76 456.013 287 453.761 287 451C287 448.239 284.76 446.014 282.003 445.861C271.892 445.299 261.936 443.033 252.559 439.149C241.639 434.626 231.718 427.997 223.361 419.64C215.003 411.282 208.374 401.361 203.851 390.442C199.328 379.522 197 367.819 197 356C197 344.181 199.328 332.478 203.851 321.559C208.374 310.639 215.003 300.718 223.361 292.36C231.718 284.003 241.639 277.374 252.559 272.851C261.936 268.967 271.892 266.701 282.003 266.139C284.76 265.986 287 263.761 287 261Z" stroke="#F6FF00" stroke-width="20" mask="url(#path-1-outside-1_2_2)"/>
<path d="M739 451C739 453.761 741.24 456.013 743.998 455.875C768.7 454.64 792.139 444.283 809.711 426.711C822.606 413.816 831.615 397.762 835.986 380.368C838.685 369.627 849.959 362.143 858.999 368.541C867.909 374.848 875.669 382.774 881.833 391.999C893.963 410.154 899.08 432.099 896.23 453.747C893.38 475.395 882.758 495.269 866.341 509.666C851.181 522.96 832.036 530.747 811.998 531.861C809.241 532.014 807 534.239 807 537C807 539.761 809.241 542.013 811.999 541.875C834.464 540.751 855.951 532.079 872.935 517.184C880.3 510.725 892.413 511.991 894.642 521.53C895.758 526.31 896.485 531.187 896.808 536.114C897.71 549.889 895.432 563.687 890.149 576.441C884.867 589.196 876.72 600.563 866.341 609.666C858.292 616.725 849.067 622.274 839.111 626.077C839.058 626.097 839 626.057 839 626C839 599.478 828.465 574.043 809.711 555.289C792.139 537.717 768.7 527.36 743.998 526.125C741.24 525.987 739 528.239 739 531C739 533.761 741.241 535.986 743.998 536.139C766.046 537.364 786.943 546.664 802.64 562.36C819.518 579.239 829 602.131 829 626C829 649.87 819.518 672.761 802.64 689.64C786.943 705.336 766.046 714.636 743.998 715.861C741.241 716.015 739 718.239 739 721C739 723.761 741.24 726.013 743.998 725.875C768.7 724.64 792.139 714.283 809.711 696.711C823.414 683.007 832.73 665.736 836.753 647.081C838.073 640.961 842.262 635.786 847.973 633.221C857.018 629.158 865.436 623.761 872.935 617.184C884.467 607.07 893.518 594.44 899.388 580.268C905.258 566.097 907.789 550.766 906.786 535.46C905.985 523.233 902.945 511.285 897.846 500.202C895.457 495.009 895.456 488.991 897.846 483.798C902.006 474.757 904.825 465.076 906.145 455.053C909.311 430.999 903.626 406.615 890.147 386.443C879.737 370.864 865.228 358.617 848.364 350.956C842.566 348.321 838.356 342.997 837.13 336.747C833.332 317.393 823.861 299.439 809.711 285.289C792.139 267.717 768.7 257.36 743.998 256.125C741.24 255.987 739 258.239 739 261C739 263.761 741.241 265.986 743.998 266.139C766.046 267.364 786.943 276.664 802.64 292.36C819.518 309.239 829 332.131 829 356C829 379.869 819.518 402.761 802.64 419.64C786.943 435.336 766.046 444.636 743.998 445.861C741.241 446.014 739 448.239 739 451Z" stroke="#F6FF00" stroke-width="20" mask="url(#path-1-outside-1_2_2)"/>
</svg>
